# xmcd
# 
# Track frame offsets:
#     150
#     15903
#     36855
#     64920
# 
# Disc length: 1961
# 
# Revision: 0
# Processed by: cddbd v1.5.2PL0 Copyright (c) Steve Scherf et al.
# Submitted via: fre:ac v1.0.17
# 
DISCID=2807a704
DTITLE=Mull Historical Society - Am I Wrong [CD1)
DYEAR=2002
DGENRE=
TTITLE0=Am I Wrong
TTITLE1=Narrow Escape At 2000 Feet
TTITLE2=It Takes More
TTITLE3=Data track
EXTD=
EXTT0=
EXTT1=
EXTT2=
EXTT3=
PLAYORDER=
